<?xml version="1.0" encoding="UTF-8" standalone="no"?><!-- Generator: Gravit.io --><svg xmlns="http://www.w3.org/2000/svg" xmlns:xlink="http://www.w3.org/1999/xlink" style="isolation:isolate" viewBox="0 0 12 12" width="12pt" height="12pt"><defs><clipPath id="_clipPath_r8eoa4AQhgfHtwE8VvNg1C5FE6PFq37Y"><rect width="12" height="12"/></clipPath></defs><g clip-path="url(#_clipPath_r8eoa4AQhgfHtwE8VvNg1C5FE6PFq37Y)"><g><path d="M 1.24 1.06 L 11.04 1.06 C 11.095 1.06 11.14 1.105 11.14 1.16 L 11.14 10.96 C 11.14 11.015 11.095 11.06 11.04 11.06 L 1.24 11.06 C 1.185 11.06 1.14 11.015 1.14 10.96 L 1.14 1.16 C 1.14 1.105 1.185 1.06 1.24 1.06 Z" style="stroke:none;fill:#E8E8E8;stroke-miterlimit:10;"/><path d="M 1.02 0.87 L 10.82 0.87 C 10.875 0.87 10.92 0.915 10.92 0.97 L 10.92 10.77 C 10.92 10.825 10.875 10.87 10.82 10.87 L 1.02 10.87 C 0.965 10.87 0.92 10.825 0.92 10.77 L 0.92 0.97 C 0.92 0.915 0.965 0.87 1.02 0.87 Z" style="stroke:none;fill:fillColor;stroke-miterlimit:10;"/></g></g></svg>