<?xml version="1.0" encoding="UTF-8" standalone="no"?><!-- Generator: Gravit.io --><svg xmlns="http://www.w3.org/2000/svg" xmlns:xlink="http://www.w3.org/1999/xlink" style="isolation:isolate" viewBox="0 0 365.25 310.5" width="365.25pt" height="310.5pt"><defs><clipPath id="_clipPath_hpHHaMSlndmr6VmuCuVVbQkvGZigAXyo"><rect width="365.25" height="310.5"/></clipPath></defs><g clip-path="url(#_clipPath_hpHHaMSlndmr6VmuCuVVbQkvGZigAXyo)"><g><g><path d=" M 363.75 285 L 355.25 283.375 L 340.25 282.625 L 329.25 282.625 L 303.25 283.375 L 292.25 284.25 L 289.75 285 L 289.25 285.5 L 290.25 286.5 L 290.75 288 L 296.75 298 L 297.25 299.5 L 300.25 302.5 L 300.875 304 L 301.75 307 L 302 309.75 L 300.25 310.5 L 298.25 310.25 L 294.25 309.38 L 287.25 308.75 L 284.25 307.5 L 281.25 306.63 L 279.25 305.25 L 275.25 304.63 L 269.25 302.375 L 265.25 301.5 L 261.25 300.375 L 256.25 299.5 L 251.25 298.5 L 246.25 297.375 L 240.25 296.375 L 233.25 295.625 L 227.25 294.375 L 219.25 293.375 L 208.25 292.375 L 189.25 291.625 L 180.25 290.75 L 178.25 290.75 L 141.25 290.75 L 137.25 289.625 L 134.25 289.75 L 97.25 289.625 L 77.25 288.375 L 44.25 288.25 L 34 289.125 L 33 291.75 L 28.25 291.75 L 25.75 289.625 L 21.25 289.625 L 13.25 289.625 L 9.25 288.375 L 2.25 287.75 L 0 286.25 L 0 283.75 L 2.75 283 L 3.75 284 L 4.75 283 L 6.25 283.75 L 11.25 283.625 L 14.25 283.625 L 18.75 284 L 19.75 285 L 20.75 284 L 26.5 283.5 L 27.75 281 L 28.75 279 L 29.875 277 L 30.625 274 L 32.875 270 L 33.625 267 L 34.75 265 L 35.75 263 L 36.875 261 L 37.625 258 L 39.875 254 L 40.625 251 L 41.875 249 L 43.625 243 L 44.875 241 L 46.625 235 L 47.875 233 L 48.75 230 L 49.75 227 L 50.625 224 L 51.875 222 L 52.75 219 L 57.75 204 L 58.625 201 L 59.875 199 L 61.625 193 L 62.875 191 L 64.625 185 L 65.875 183 L 67.625 177 L 68.875 175 L 69.75 172 L 72.75 163 L 73.875 160 L 74.625 156 L 75.75 153 L 78.75 144 L 79.875 141 L 80.625 137 L 82.875 131 L 83.75 127 L 84.75 123 L 85.625 119 L 86.875 116 L 87.75 112 L 91.75 96 L 92.625 92 L 93.875 89 L 95.625 81 L 96.75 78 L 97.75 75 L 98.875 72 L 99.625 68 L 101.875 62 L 103.625 54 L 104.75 51 L 110.75 33 L 111.875 30 L 112.625 26 L 113.75 23 L 115.75 17 L 116.625 14 L 117.875 12 L 118.625 9 L 119.875 7 L 120.625 4 L 122 1.75 L 123.75 1 L 124.75 0 L 125.75 1 L 128 1.25 L 128.25 4.5 L 127.25 5.5 L 128.25 6.5 L 127.25 7.5 L 127.75 12 L 128.875 17 L 129.625 24 L 130.625 30 L 131.75 34 L 132.625 38 L 133.625 41 L 134.25 42.5 L 134.25 43 L 135.25 42.5 L 135.625 40 L 137.875 36 L 139.625 30 L 140.875 28 L 141.875 25 L 142.5 21 L 143.25 19.5 L 143.75 19 L 145.25 20.5 L 144.25 21.5 L 143.875 25 L 142.75 28 L 141.875 31 L 140.625 33 L 139.875 36 L 138.625 38 L 137.875 41 L 136.5 43 L 136.5 49 L 137.75 51 L 141.75 59 L 144.75 64 L 150.75 76 L 153.75 81 L 157.75 89 L 160.75 94 L 166.75 106 L 172.75 116 L 179.75 130 L 181.25 132.5 L 187.25 141.5 L 190.25 146.5 L 196.25 155.5 L 197.25 157.5 L 200.25 160.5 L 201.25 162.5 L 205.25 168.5 L 206.25 170.5 L 211.25 175.5 L 211.25 176.5 L 215.25 180.5 L 215.25 181.5 L 222.25 188.5 L 222.25 189.5 L 225.25 192.5 L 225.25 193.5 L 228.25 196.5 L 228.25 197.5 L 231.25 200.5 L 233.25 204.5 L 236.25 207.5 L 236.25 208.5 L 240.25 212.5 L 240.25 213.5 L 245.25 218.5 L 245.25 219.5 L 249.25 223.5 L 251.25 227.5 L 254.25 230.5 L 256.25 234.5 L 259.25 237.5 L 259.75 239 L 261.25 241.5 L 265.25 247.5 L 269.75 255 L 270.75 257 L 271.25 258.5 L 274.25 261.5 L 275.25 263.5 L 277.25 266.5 L 280.25 271.5 L 284.25 277.5 L 286 280.5 L 292.25 280.375 L 301.25 279.25 L 346.25 279.25 L 355.25 279.75 L 359.25 279.25 L 361.25 280.625 L 364.5 281.75 L 365.25 283.5 L 363.75 285 Z  M 86.25 151 L 86.25 150.5 L 86.75 149 L 87.875 147 L 88.625 144 L 89.75 142 L 90.75 140 L 91.875 138 L 92.625 135 L 93.75 133 L 95.75 129 L 96.875 127 L 97.625 124 L 98.75 122 L 100.75 118 L 101.875 116 L 102.625 113 L 103.75 111 L 104.75 109 L 105.875 107 L 106.625 104 L 107.75 102 L 109.75 98 L 110.875 96 L 111.625 93 L 112.75 91 L 114.75 87 L 117.75 82 L 122.75 72 L 123.875 70 L 124.625 67 L 125.875 65 L 126.625 62 L 127.875 60 L 128.625 57 L 129.75 55 L 130.75 53 L 131.875 51 L 132.75 48 L 132.875 45 L 131.625 43 L 130.625 40 L 129.875 36 L 128.625 33 L 127.75 27 L 126.625 21 L 126 14 L 125.25 12.5 L 124.25 12 L 124.25 12.5 L 123.875 15 L 122.625 17 L 121.875 20 L 120.5 22 L 119.75 26 L 118.875 30 L 117.75 33 L 111.75 51 L 110.625 54 L 108.875 62 L 106.625 68 L 105.875 72 L 103.625 78 L 102.875 82 L 101.625 85 L 100.75 89 L 90.75 129 L 89.875 133 L 88.625 136 L 86.875 144 L 85.625 147 L 85.25 150.5 L 86.25 151 Z  M 257.25 282.375 L 274.25 281.75 L 278.25 281.625 L 283 281.75 L 282.75 280 L 281.25 277.5 L 279.25 274.5 L 276.25 269.5 L 274.25 266.5 L 273.25 264.5 L 270.25 261.5 L 269.75 260 L 268.75 258 L 267.25 255.5 L 265.25 252.5 L 262.25 247.5 L 260.25 244.5 L 258.75 242 L 258.25 240.5 L 255.25 237.5 L 253.25 233.5 L 250.25 230.5 L 248.25 226.5 L 245.25 223.5 L 245.25 222.5 L 241.25 218.5 L 241.25 217.5 L 236.25 212.5 L 236.25 211.5 L 232.25 207.5 L 231.25 205.5 L 229.25 202.5 L 228.25 200.5 L 225.25 197.5 L 225.25 196.5 L 222.25 193.5 L 222.25 192.5 L 219.25 189.5 L 219.25 188.5 L 211.25 180.5 L 211.25 179.5 L 206.25 174.5 L 206.25 173.5 L 203.25 170.5 L 202.25 168.5 L 200.25 165.5 L 199.25 163.5 L 196.25 160.5 L 195.25 158.5 L 187.25 146.5 L 184.25 141.5 L 178.25 132.5 L 176.75 130 L 169.75 116 L 166.75 111 L 165.75 109 L 162.75 104 L 156.75 92 L 153.75 87 L 147.75 75 L 144.75 70 L 138.75 58 L 135.75 53 L 135 51.25 L 133.5 51.25 L 132.875 54 L 131.75 56 L 130.75 58 L 129.625 60 L 128.875 63 L 127.625 65 L 126.875 68 L 125.75 70 L 111.75 98 L 110.625 100 L 109.875 103 L 108.75 105 L 107.75 107 L 106.625 109 L 105.875 112 L 104.75 114 L 102.75 118 L 101.625 120 L 100.875 123 L 99.75 125 L 97.75 129 L 96.625 131 L 95.875 134 L 94.75 136 L 93.75 138 L 92.625 140 L 91.875 143 L 90.75 145 L 88.75 149 L 87.625 151 L 86.875 154 L 85.75 156 L 80.75 166 L 79.625 168 L 78.75 171 L 76.75 177 L 75.875 180 L 74.625 182 L 73.75 185 L 72.75 188 L 71.875 191 L 70.625 193 L 68.875 199 L 67.625 201 L 66.75 204 L 55.75 237 L 54.875 240 L 53.625 242 L 52.75 245 L 50.75 251 L 49.875 254 L 48.625 256 L 47.875 259 L 46.625 261 L 45.875 264 L 44.75 266 L 40.75 274 L 39.625 276 L 37.875 282 L 37.5 283.75 L 41.75 284 L 42.75 285 L 43.75 284 L 74.25 284.75 L 192.25 284.75 L 226.25 284.25 L 232.25 284.25 L 248.25 283.625 L 257.25 282.375 Z  M 85.25 153 L 85.25 152.5 L 85.25 151.5 L 84.25 151 L 84.25 151.5 L 84.25 152.5 L 85.25 153 Z  M 84.25 155 L 84.25 154 L 83.25 154 L 83.25 155 L 84.25 155 Z  M 83.25 158 L 83.25 157 L 82.25 157 L 82.25 158 L 83.25 158 Z  M 160.75 289 L 161.25 288 L 160.75 288 L 152.75 288 L 152.25 289 L 152.75 289 L 160.75 289 Z  M 299 307.75 L 298.75 306 L 297.25 303.5 L 295.25 300.5 L 293.75 298 L 292.75 296 L 288.25 288.5 L 286.5 285 L 274.25 285.625 L 257.25 286.625 L 239.25 287.75 L 184.75 288 L 184.25 289 L 184.75 289 L 196.25 289.625 L 215.25 290.375 L 224.25 291.375 L 231.25 292.375 L 237.25 293.5 L 243.25 294.5 L 249.25 295.375 L 254.25 296.5 L 259.25 297.375 L 263.25 298.625 L 268.25 299.375 L 271.25 300.375 L 273.25 301.75 L 281.25 303.25 L 283.25 304.63 L 286.25 305.63 L 291.25 306.63 L 297.25 307.25 L 299 307.75 Z " fill-rule="evenodd" fill="rgb(0,0,0)"/></g></g></g></svg>