<?xml version="1.0" encoding="UTF-8" standalone="no"?><!-- Generator: Gravit.io --><svg xmlns="http://www.w3.org/2000/svg" xmlns:xlink="http://www.w3.org/1999/xlink" style="isolation:isolate" viewBox="0 0 12 12" width="12pt" height="12pt"><defs><clipPath id="_clipPath_cUWNvq72JD0aEEzEhRtlcslilHachwyh"><rect width="12" height="12"/></clipPath></defs><g clip-path="url(#_clipPath_cUWNvq72JD0aEEzEhRtlcslilHachwyh)"><g><path d=" M 10.309 8.485 L 6.066 8.485 L 1.823 8.485 C 1.751 8.485 1.722 8.434 1.758 8.371 L 3.879 4.697 L 6.001 1.022 C 6.037 0.959 6.096 0.959 6.132 1.022 L 8.253 4.697 L 10.375 8.371 C 10.411 8.434 10.382 8.485 10.309 8.485 Z " fill="rgb(232,232,232)" fill-opacity="0.8"/><path d=" M 10.063 8.352 L 5.82 8.352 L 1.577 8.352 C 1.505 8.352 1.475 8.301 1.512 8.239 L 3.633 4.564 L 5.755 0.89 C 5.791 0.827 5.85 0.827 5.886 0.89 L 8.007 4.564 L 10.129 8.239 C 10.165 8.301 10.136 8.352 10.063 8.352 Z " fill="fillColor"/></g></g></svg>